<svg width="1200" height="900" viewBox="0 0 1200 900" fill="none" xmlns="http://www.w3.org/2000/svg">
  <rect width="1200" height="900" rx="30" fill="#F3F6F8"/>
  <rect x="34" y="34" width="1132" height="832" rx="24" fill="#FFFFFF" stroke="#D7E0E6"/>
  <rect x="70" y="70" width="1060" height="124" rx="18" fill="#EEF3F6"/>
  <text x="96" y="118" fill="#3E5768" font-family="Avenir Next, Inter, Arial, sans-serif" font-size="22" font-weight="700" letter-spacing="3">RETAIL SPACE FOR LEASE</text>
  <text x="96" y="166" fill="#13202D" font-family="Avenir Next, Inter, Arial, sans-serif" font-size="52" font-weight="700">Preston Oaks Suite 120</text>
  <rect x="926" y="88" width="166" height="88" rx="14" fill="#FFFFFF" stroke="#D7E0E6"/>
  <text x="1009" y="130" text-anchor="middle" fill="#13202D" font-family="Avenir Next, Inter, Arial, sans-serif" font-size="34" font-weight="700">1,500</text>
  <text x="1009" y="156" text-anchor="middle" fill="#5D6D79" font-family="Avenir Next, Inter, Arial, sans-serif" font-size="15" font-weight="700" letter-spacing="2.4">SQUARE FEET</text>

  <clipPath id="heroClip">
    <rect x="70" y="222" width="1060" height="344" rx="20"/>
  </clipPath>

  <g clip-path="url(#heroClip)">
    <rect x="70" y="222" width="1060" height="344" fill="url(#sky)"/>
    <rect x="70" y="430" width="1060" height="136" fill="#D8C5A4"/>
    <rect x="70" y="454" width="1060" height="112" fill="#C5A273"/>
    <rect x="86" y="312" width="1028" height="164" rx="10" fill="#D9DEE2"/>
    <rect x="86" y="340" width="1028" height="136" fill="#E9ECEF"/>
    <rect x="120" y="326" width="220" height="130" rx="4" fill="#F9FAFB"/>
    <rect x="360" y="326" width="230" height="130" rx="4" fill="#F9FAFB"/>
    <rect x="612" y="326" width="230" height="130" rx="4" fill="#F9FAFB"/>
    <rect x="864" y="326" width="216" height="130" rx="4" fill="#F9FAFB"/>
    <rect x="140" y="350" width="180" height="78" rx="3" fill="#90AFC0"/>
    <rect x="380" y="350" width="190" height="78" rx="3" fill="#7EA0B7"/>
    <rect x="632" y="350" width="190" height="78" rx="3" fill="#88A9B8"/>
    <rect x="884" y="350" width="176" height="78" rx="3" fill="#7B98AD"/>
    <rect x="430" y="442" width="340" height="124" fill="#BB9463"/>
    <rect x="462" y="442" width="276" height="124" fill="#D2AF7E"/>
    <rect x="494" y="470" width="212" height="96" fill="#7A5738"/>
    <rect x="522" y="478" width="156" height="88" fill="#B7D3E4"/>
    <path d="M70 432C206 404 322 404 450 428C576 452 706 452 844 424C950 402 1046 402 1130 420V566H70V432Z" fill="rgba(171,138,98,0.26)"/>
    <rect x="238" y="282" width="92" height="28" rx="4" fill="#0C4B61"/>
    <text x="284" y="301" text-anchor="middle" fill="#FFFFFF" font-family="Avenir Next, Inter, Arial, sans-serif" font-size="14" font-weight="700" letter-spacing="1.8">AVAILABLE</text>
    <rect x="858" y="284" width="104" height="28" rx="4" fill="#0C4B61"/>
    <text x="910" y="303" text-anchor="middle" fill="#FFFFFF" font-family="Avenir Next, Inter, Arial, sans-serif" font-size="14" font-weight="700" letter-spacing="1.8">RETAIL</text>
  </g>

  <rect x="70" y="598" width="650" height="214" rx="16" fill="#FBFCFD" stroke="#E0E7EC"/>
  <text x="96" y="654" fill="#13202D" font-family="Avenir Next, Inter, Arial, sans-serif" font-size="34" font-weight="700">Prime Plano retail opportunity</text>
  <text x="96" y="702" fill="#5D6D79" font-family="Avenir Next, Inter, Arial, sans-serif" font-size="24">QSR and service retail space in a high-traffic corridor.</text>
  <text x="96" y="738" fill="#5D6D79" font-family="Avenir Next, Inter, Arial, sans-serif" font-size="24">Asking $20/SF NNN with strong co-tenancy and visibility.</text>
  <text x="96" y="785" fill="#8795A1" font-family="Avenir Next, Inter, Arial, sans-serif" font-size="18">Powered by CapRateAlpha</text>

  <rect x="754" y="598" width="376" height="68" rx="14" fill="#FFFFFF" stroke="#E0E7EC"/>
  <text x="780" y="639" fill="#5D6D79" font-family="Avenir Next, Inter, Arial, sans-serif" font-size="16" font-weight="700" letter-spacing="2">USE TYPE</text>
  <text x="780" y="661" fill="#13202D" font-family="Avenir Next, Inter, Arial, sans-serif" font-size="21" font-weight="700">QSR / service retail</text>

  <rect x="754" y="682" width="376" height="68" rx="14" fill="#FFFFFF" stroke="#E0E7EC"/>
  <text x="780" y="723" fill="#5D6D79" font-family="Avenir Next, Inter, Arial, sans-serif" font-size="16" font-weight="700" letter-spacing="2">ADDRESS</text>
  <text x="780" y="745" fill="#13202D" font-family="Avenir Next, Inter, Arial, sans-serif" font-size="20" font-weight="700">6201 W Park Blvd, Plano, TX</text>

  <rect x="754" y="766" width="376" height="68" rx="14" fill="#FFFFFF" stroke="#E0E7EC"/>
  <text x="780" y="807" fill="#5D6D79" font-family="Avenir Next, Inter, Arial, sans-serif" font-size="16" font-weight="700" letter-spacing="2">CONTACT</text>
  <text x="780" y="829" fill="#13202D" font-family="Avenir Next, Inter, Arial, sans-serif" font-size="20" font-weight="700">Leasing details available on request</text>

  <defs>
    <linearGradient id="sky" x1="70" y1="222" x2="1130" y2="566" gradientUnits="userSpaceOnUse">
      <stop stop-color="#DDE7EF"/>
      <stop offset="0.48" stop-color="#F4F7F9"/>
      <stop offset="1" stop-color="#D8E4EA"/>
    </linearGradient>
  </defs>
</svg>
